<?xml version="1.0" standalone="no"?>
<!DOCTYPE svg PUBLIC "-//W3C//DTD SVG 20010904//EN"
 "http://www.w3.org/TR/2001/REC-SVG-20010904/DTD/svg10.dtd">
<svg version="1.0" xmlns="http://www.w3.org/2000/svg"
 width="480.000000pt" height="480.000000pt" viewBox="0 0 480.000000 480.000000"
 preserveAspectRatio="xMidYMid meet">
<metadata>
Created by potrace 1.11, written by Peter Selinger 2001-2013
</metadata>
<g transform="translate(0.000000,480.000000) scale(0.100000,-0.100000)"
fill="#000000" stroke="none">
<path d="M2370 4634 c-12 -15 -12 -16 -1 -9 10 6 12 4 7 -4 -6 -9 -13 -8 -29
6 -11 10 -17 12 -13 6 4 -8 1 -13 -9 -13 -10 0 -14 -5 -10 -12 4 -7 -1 -4 -10
7 -17 19 -17 19 -11 -10 5 -24 4 -27 -4 -12 -6 9 -16 15 -21 12 -5 -4 -6 -11
-3 -17 4 -7 2 -8 -5 -4 -6 4 -9 11 -7 15 3 4 -2 8 -10 8 -9 0 -13 -6 -10 -14
3 -8 2 -12 -2 -9 -19 12 -62 14 -56 4 5 -7 2 -9 -9 -5 -8 3 -21 -1 -28 -9 -6
-8 -14 -12 -17 -9 -3 3 -11 0 -19 -6 -9 -9 -13 -8 -13 0 0 6 5 11 10 11 6 0
10 5 10 12 0 6 -11 1 -25 -12 -14 -13 -25 -19 -25 -13 0 8 -38 10 -47 3 -2 -2
-7 -3 -12 -4 -6 0 -16 -7 -22 -13 -19 -19 -33 -15 -18 5 12 15 12 16 -2 5 -9
-7 -19 -10 -22 -6 -13 12 -7 -13 6 -27 10 -12 9 -12 -3 -3 -20 13 -61 24 -55
13 3 -5 1 -11 -5 -15 -5 -3 -10 -1 -10 6 0 6 -9 1 -21 -12 -11 -13 -18 -19
-15 -13 3 7 -2 18 -11 25 -12 10 -14 10 -9 2 5 -9 0 -13 -14 -13 -12 0 -18 -4
-15 -10 3 -5 1 -10 -4 -10 -6 0 -11 5 -11 10 0 6 -5 10 -11 10 -5 0 -7 -4 -4
-10 3 -5 -1 -10 -10 -10 -9 0 -14 -4 -11 -8 2 -4 -7 -8 -22 -7 -18 0 -26 6
-24 15 3 11 1 11 -13 0 -14 -12 -18 -11 -26 1 -5 8 -9 9 -9 4 0 -6 6 -17 13
-24 10 -11 8 -11 -10 -2 -13 6 -23 8 -23 4 0 -4 -4 -2 -9 6 -7 11 -10 9 -15
-7 -5 -16 -14 -20 -36 -17 -24 3 -28 1 -24 -13 4 -12 3 -13 -3 -4 -9 12 -47 6
-39 -7 2 -3 -11 -6 -29 -6 -20 0 -31 4 -28 10 4 5 3 7 -2 3 -4 -4 -14 -3 -22
3 -10 9 -18 8 -31 -5 -10 -9 -24 -16 -30 -16 -7 0 -12 -5 -12 -11 0 -5 5 -7
12 -3 7 5 8 3 3 -6 -6 -10 -11 -9 -21 5 -10 14 -17 15 -27 7 -8 -7 -18 -8 -23
-4 -4 4 -2 -2 6 -12 10 -14 11 -17 2 -12 -7 4 -20 2 -28 -5 -8 -7 -14 -8 -13
-3 3 20 -2 28 -10 15 -5 -8 -17 -16 -25 -17 -9 -1 -14 2 -10 7 7 11 -33 6 -43
-6 -5 -4 -3 -5 4 -1 6 3 14 2 17 -3 10 -15 -25 -6 -35 10 -8 11 -9 9 -5 -6 5
-17 1 -20 -25 -21 -18 -1 -26 2 -19 6 8 5 8 9 -4 13 -9 4 -15 3 -15 -1 3 -20
-2 -25 -12 -12 -9 12 -10 10 -6 -8 5 -23 5 -23 -14 -6 -14 13 -19 14 -19 4 0
-11 -3 -11 -12 -2 -8 8 -15 9 -25 1 -7 -7 -13 -8 -13 -3 0 4 -11 -3 -25 -16
-17 -16 -25 -19 -25 -9 0 12 -2 11 -10 -1 -5 -8 -10 -10 -10 -4 0 6 -7 11 -15
11 -12 0 -12 -3 -2 -16 10 -12 9 -13 -2 -7 -8 5 -17 3 -23 -5 -8 -11 -9 -10
-4 3 3 10 0 20 -6 24 -7 4 -8 3 -4 -4 5 -8 0 -12 -13 -12 -12 0 -21 -6 -21
-12 0 -9 -4 -8 -10 2 -6 10 -10 11 -10 3 0 -7 -5 -13 -11 -13 -5 0 -7 6 -3 13
4 6 -3 2 -15 -11 -17 -17 -26 -20 -36 -12 -10 8 -15 8 -21 -1 -5 -8 -3 -10 7
-4 8 5 11 4 6 0 -4 -5 -17 -10 -29 -12 -18 -3 -19 -1 -7 14 13 16 12 17 -4 4
-11 -9 -15 -21 -12 -35 5 -19 5 -19 -5 -3 -11 18 -12 18 -27 0 -14 -17 -14
-17 -9 2 6 19 5 19 -8 2 -10 -14 -15 -15 -19 -5 -3 8 -6 6 -6 -6 -1 -16 -3
-17 -18 -5 -10 7 -15 10 -11 5 12 -14 -15 -35 -33 -25 -11 5 -16 4 -16 -6 0
-8 5 -11 11 -8 6 4 5 -1 -3 -10 -14 -17 -26 -24 -17 -9 2 4 -4 14 -16 21 -11
7 -17 8 -13 2 3 -7 -2 -11 -14 -11 -12 0 -21 5 -21 10 0 15 -24 7 -32 -10 -5
-12 -7 -12 -7 3 -1 21 -21 23 -21 1 0 -9 -5 -12 -11 -8 -7 4 -10 1 -7 -7 3 -8
11 -13 17 -11 7 1 10 -2 6 -8 -3 -6 -11 -8 -16 -5 -5 4 -9 1 -9 -5 0 -6 -4 -9
-8 -6 -11 7 -9 -35 2 -53 6 -9 5 -12 0 -8 -6 3 -15 -3 -22 -14 -7 -10 -9 -19
-5 -18 21 3 22 -4 8 -38 l-15 -38 21 25 20 25 -12 -25 c-9 -18 -9 -25 0 -28 6
-2 11 -8 11 -14 0 -7 -5 -6 -14 1 -11 9 -15 8 -20 -4 -3 -9 -2 -13 4 -10 11 7
12 4 14 -43 2 -21 -2 -31 -9 -28 -7 2 -12 -2 -12 -10 0 -8 6 -13 13 -10 8 3
16 0 20 -6 4 -7 3 -8 -4 -4 -10 6 -16 -25 -11 -60 0 -4 -5 -10 -11 -14 -8 -5
-7 -9 5 -13 11 -5 14 -3 9 6 -4 6 -3 8 1 4 14 -12 15 -38 2 -30 -7 3 -3 -4 8
-17 11 -13 14 -20 7 -16 -11 7 -12 4 -3 -13 7 -11 16 -21 22 -21 6 0 7 -4 4
-10 -3 -5 -1 -10 5 -10 6 0 8 -5 4 -12 -4 -7 -3 -8 5 -4 6 4 14 0 17 -9 5 -13
9 -13 22 -3 12 10 14 10 8 1 -4 -7 -2 -13 3 -13 6 0 11 -7 11 -16 0 -9 5 -12
12 -8 7 5 9 2 5 -9 -4 -11 -1 -15 12 -12 14 2 17 -2 15 -20 -1 -17 2 -22 12
-18 12 4 19 -7 15 -29 0 -4 5 -5 12 -3 6 3 19 0 27 -5 13 -9 13 -11 0 -21 -12
-8 -10 -9 9 -4 18 5 22 4 16 -6 -6 -9 -4 -11 7 -6 12 4 15 0 13 -18 -2 -21 1
-23 16 -14 22 11 25 -1 7 -20 -11 -11 -9 -12 8 -2 25 12 43 -2 39 -32 -3 -14
0 -15 9 -8 14 11 26 5 26 -13 0 -6 -5 -4 -10 4 -6 10 -10 11 -10 3 0 -7 16
-19 36 -28 20 -8 38 -24 41 -35 3 -11 10 -20 15 -20 5 0 7 -4 3 -9 -3 -5 -1
-12 5 -16 5 -3 10 -11 10 -17 0 -5 -9 0 -21 13 -18 22 -19 22 -10 3 6 -12 7
-24 4 -28 -3 -3 -2 -6 4 -6 13 0 13 -33 -1 -42 -8 -6 -8 -8 0 -8 7 0 15 -7 18
-16 4 -11 2 -15 -8 -11 -11 4 -13 1 -9 -10 5 -13 2 -15 -12 -10 -14 6 -15 5
-7 -6 8 -10 6 -13 -9 -14 -11 -1 -17 2 -15 6 3 4 -2 8 -10 8 -8 0 -13 -6 -10
-12 2 -6 -2 -12 -10 -12 -8 0 -14 5 -14 10 0 5 -8 1 -17 -10 -10 -10 -15 -14
-10 -7 4 7 2 14 -6 17 -14 5 -39 -6 -38 -17 2 -17 -1 -17 -24 -2 -23 15 -24
15 -18 -1 4 -11 3 -14 -5 -9 -12 7 -44 -6 -43 -17 1 -4 -2 -7 -6 -7 -5 0 -8 5
-8 12 0 6 -6 12 -13 14 -7 1 -8 0 -2 -3 5 -2 8 -9 4 -14 -3 -5 -14 -5 -26 2
-15 8 -19 8 -14 0 4 -6 0 -11 -9 -11 -10 0 -13 5 -9 12 4 7 3 8 -5 4 -6 -4
-20 -4 -32 -1 -17 6 -18 9 -7 23 11 13 11 15 -3 10 -9 -4 -22 -1 -29 5 -10 10
-10 8 -1 -10 9 -19 8 -20 -10 -16 -16 4 -20 2 -17 -12 2 -10 -4 -20 -12 -22
-13 -4 -13 -3 0 6 9 7 10 11 3 11 -15 0 -25 -15 -16 -24 11 -10 12 -37 2 -30
-5 3 -7 10 -4 15 3 5 0 6 -7 4 -16 -6 -21 -42 -7 -50 5 -3 6 2 3 12 -5 15 -4
15 4 3 13 -17 5 -33 -14 -26 -8 3 -11 0 -7 -9 3 -8 9 -12 14 -9 5 3 6 -2 3
-10 -3 -9 -10 -13 -15 -10 -10 6 0 -25 14 -44 7 -9 5 -11 -9 -5 -16 6 -17 4
-7 -9 7 -8 10 -18 6 -21 -3 -4 0 -7 8 -7 12 0 12 -2 0 -9 -13 -8 -13 -12 0
-28 13 -17 13 -17 -4 -4 -16 12 -17 12 -10 -5 3 -10 11 -23 17 -27 7 -5 2 -7
-11 -4 -21 5 -21 4 -6 -19 8 -13 11 -24 7 -24 -5 0 -2 -5 6 -10 11 -7 11 -10
2 -10 -7 0 -11 -4 -7 -9 3 -5 1 -12 -4 -15 -5 -4 -8 -14 -6 -24 2 -9 4 -21 4
-25 1 -5 7 -5 14 -1 7 5 6 0 -3 -11 -14 -17 -13 -17 10 -12 14 4 19 4 12 1 -6
-3 -10 -10 -7 -15 4 -5 -2 -6 -12 -2 -17 7 -17 6 0 -11 9 -10 14 -22 11 -28
-4 -7 -2 -8 5 -4 6 4 9 11 6 16 -3 5 0 12 7 16 7 4 10 4 6 -1 -4 -4 -2 -15 5
-23 9 -13 9 -14 0 -8 -9 5 -12 0 -11 -18 1 -13 5 -23 9 -20 4 2 10 0 14 -6 4
-6 10 -8 15 -5 5 3 7 -6 4 -21 -4 -20 -1 -25 9 -21 10 4 13 -1 9 -20 -3 -14
-1 -24 4 -21 5 3 16 -1 24 -10 13 -14 12 -15 -3 -9 -9 3 -19 2 -22 -3 -3 -5 5
-10 17 -12 18 -2 22 -9 22 -35 -1 -26 2 -31 18 -28 17 4 18 2 7 -13 -7 -9 -9
-14 -5 -10 10 9 35 -20 36 -40 0 -7 6 -19 13 -27 8 -7 13 -27 12 -43 -1 -25 1
-28 19 -24 19 5 19 4 7 -11 -12 -15 -12 -17 4 -11 13 5 16 4 11 -4 -4 -7 -2
-12 3 -12 6 0 11 -4 11 -10 0 -5 -8 -6 -17 -3 -10 4 -2 -8 17 -25 19 -18 39
-32 44 -32 5 0 1 -7 -10 -16 -10 -8 -13 -12 -5 -8 11 5 13 3 7 -11 -6 -16 -4
-16 11 -4 10 7 15 9 10 4 -4 -4 1 -18 10 -29 10 -12 11 -15 3 -8 -8 6 -18 12
-24 12 -5 0 1 -8 12 -19 24 -20 30 -37 10 -25 -7 4 -3 -4 9 -17 21 -23 23 -27
23 -50 0 -8 5 -7 15 1 13 11 14 10 9 -5 -5 -12 -4 -16 3 -12 6 4 11 1 10 -6
-1 -35 4 -57 14 -57 5 0 7 5 3 12 -4 7 -3 8 5 4 6 -4 9 -12 6 -17 -4 -5 -1 -9
4 -9 6 0 11 -5 11 -11 0 -5 -4 -8 -9 -4 -5 3 -13 1 -16 -5 -4 -6 -3 -9 2 -8 4
2 10 -1 11 -7 10 -27 24 -45 31 -40 5 2 14 -2 21 -10 11 -13 10 -14 -4 -9 -9
3 -16 3 -16 0 0 -4 11 -11 25 -16 23 -9 25 -12 14 -32 -12 -22 -11 -22 6 -8
17 14 18 14 6 -7 -10 -19 -8 -28 11 -53 14 -19 28 -28 37 -25 9 3 12 3 8 -1
-4 -4 -2 -13 4 -20 7 -8 7 -14 -1 -19 -7 -4 -6 -13 2 -28 7 -12 11 -25 11 -28
-1 -4 5 -6 15 -5 12 1 17 -6 16 -26 -1 -15 3 -25 8 -22 4 3 5 11 2 17 -4 7 -3
8 2 4 5 -5 10 -13 10 -18 1 -5 2 -14 3 -20 0 -5 7 -7 13 -3 10 6 10 4 0 -8
-10 -13 -10 -17 0 -21 10 -4 10 -7 -1 -15 -11 -8 -9 -11 8 -17 13 -4 20 -12
17 -20 -3 -10 0 -12 12 -8 14 6 15 4 5 -9 -11 -12 -9 -17 11 -26 19 -8 23 -16
19 -39 -5 -27 -5 -27 10 -8 15 19 15 19 10 -6 -5 -28 21 -64 39 -53 7 4 8 2 4
-5 -4 -6 -11 -9 -16 -6 -5 3 -12 0 -16 -6 -4 -8 -3 -9 4 -5 11 7 17 -6 13 -27
-1 -5 3 -6 9 -2 6 3 7 12 3 18 -4 7 0 6 10 -2 9 -7 15 -17 12 -21 -3 -5 1 -11
7 -14 7 -3 2 -3 -12 0 -21 4 -22 3 -7 -6 9 -6 14 -16 11 -22 -4 -7 -2 -8 4 -4
7 4 12 2 12 -4 0 -6 5 -8 13 -4 7 5 6 0 -3 -11 -8 -10 -10 -16 -4 -12 7 4 15
0 18 -9 4 -10 2 -13 -7 -9 -6 4 0 -3 15 -15 23 -18 26 -25 17 -42 -10 -18 -9
-19 13 -8 18 10 21 10 11 0 -9 -10 -8 -16 6 -29 9 -9 12 -12 5 -8 -7 5 -15 3
-20 -4 -4 -8 -3 -9 4 -5 7 4 12 2 12 -3 0 -6 6 -11 14 -11 8 0 17 -8 21 -18 5
-14 4 -15 -6 -4 -7 6 -17 12 -23 12 -5 0 1 -8 12 -19 12 -10 22 -23 22 -30 0
-6 5 -11 11 -11 6 0 9 -9 6 -20 -3 -11 -1 -17 4 -14 5 3 17 -3 27 -12 16 -17
16 -18 -1 -11 -9 3 -17 2 -17 -3 0 -6 8 -10 18 -11 9 0 12 -3 5 -6 -10 -3 -10
-7 0 -18 9 -9 14 -10 19 -1 6 8 8 8 8 -1 0 -6 -4 -14 -10 -18 -13 -8 -1 -35
16 -35 8 0 14 -9 14 -19 0 -11 4 -23 10 -26 6 -4 7 1 4 12 -5 14 -4 15 4 4 6
-8 8 -21 4 -29 -4 -11 -2 -13 9 -7 12 8 12 6 0 -9 -13 -15 -12 -18 8 -23 16
-4 19 -9 10 -19 -8 -10 -5 -16 10 -26 12 -7 21 -21 21 -30 0 -10 9 -23 20 -30
11 -7 20 -16 20 -21 0 -4 -4 -5 -10 -2 -5 3 -10 1 -10 -4 0 -14 13 -14 28 1 9
9 11 6 7 -11 -3 -18 -1 -20 9 -12 10 8 16 8 25 -3 7 -8 23 -13 36 -10 20 3 23
1 19 -13 -5 -17 -5 -17 6 0 6 9 8 23 4 30 -6 9 -4 9 8 -1 13 -11 19 -9 34 10
11 13 28 22 39 22 11 -1 26 -2 33 -3 8 -1 10 -6 6 -14 -5 -9 -4 -9 6 0 9 8 19
9 36 0 19 -8 27 -7 37 3 9 10 9 11 0 6 -9 -5 -11 -2 -7 8 5 13 8 12 24 -2 21
-17 53 -26 44 -11 -3 5 -10 6 -16 3 -7 -4 -8 -2 -4 4 4 6 14 8 23 5 10 -4 14
-2 10 4 -9 14 28 9 46 -6 12 -9 17 -9 23 0 5 8 3 9 -6 4 -9 -5 -11 -4 -6 4 4
6 13 8 19 4 21 -13 39 -12 34 2 -4 9 1 11 14 8 10 -3 19 -10 19 -15 0 -5 7 -2
16 6 18 18 39 22 28 4 -4 -7 -3 -8 5 -4 9 6 9 11 0 22 -10 12 -9 13 5 8 9 -3
23 -1 31 6 11 9 16 7 26 -9 13 -19 13 -19 27 0 7 10 19 19 25 19 8 0 8 -3 -1
-9 -11 -7 -10 -9 3 -14 9 -4 13 -3 10 3 -3 6 -1 10 5 10 6 0 9 4 6 8 -6 11 36
9 53 -2 11 -7 13 -5 8 6 -4 11 0 15 11 13 9 -1 20 3 24 9 5 8 8 7 8 -1 0 -18
25 -16 44 3 9 8 16 12 16 7 0 -5 -5 -14 -12 -21 -9 -9 -5 -9 14 0 15 7 24 16
22 20 -3 5 0 8 5 8 6 0 11 -4 11 -10 0 -17 44 -6 56 14 8 13 13 15 18 7 4 -6
2 -11 -4 -11 -6 0 -8 -5 -5 -11 5 -6 12 -4 22 8 8 10 12 13 9 6 -4 -6 -1 -15
5 -19 8 -4 9 -3 5 4 -4 7 -1 12 8 12 9 0 16 6 16 13 0 7 3 8 8 2 9 -12 54 -16
46 -4 -3 5 -9 7 -14 4 -5 -3 -12 0 -16 7 -4 7 -4 10 1 6 4 -4 15 -2 23 5 13 9
14 9 8 0 -4 -8 -1 -13 8 -13 9 0 16 5 16 11 0 6 7 3 16 -5 21 -21 30 -20 13 1
-10 11 -10 14 -1 9 7 -4 12 -2 12 6 0 10 3 9 9 -2 6 -8 7 -18 4 -24 -3 -5 -1
-6 5 -2 7 4 12 14 12 22 0 8 4 14 10 14 5 0 7 -7 4 -15 -5 -11 -2 -14 12 -8
11 3 22 11 26 17 4 6 12 12 18 12 5 1 12 3 15 4 13 7 31 5 43 -3 8 -7 12 -4
13 9 1 14 3 13 9 -6 5 -16 8 -19 9 -8 1 9 6 20 13 24 7 4 8 3 4 -4 -4 -7 -3
-12 3 -12 5 0 13 4 16 10 3 5 12 10 18 10 7 0 6 -4 -3 -10 -12 -7 -10 -9 7 -7
12 0 20 4 17 8 -5 9 18 17 34 12 6 -3 9 -10 5 -16 -4 -7 1 -5 12 3 10 8 20 14
22 13 8 -7 23 -2 23 8 0 6 -5 7 -12 2 -19 -11 -39 -13 -32 -1 3 5 9 7 12 4 3
-3 11 -1 18 5 9 8 15 5 24 -10 6 -12 16 -21 23 -21 7 0 8 3 2 8 -5 4 -11 13
-13 21 -3 12 -1 12 14 0 16 -13 17 -12 10 6 -6 16 -5 18 5 8 17 -17 32 -17 23
0 -5 9 -4 9 6 0 11 -10 16 -9 27 5 12 16 13 16 6 -2 -4 -13 -3 -17 4 -13 6 4
14 1 17 -5 4 -7 4 -3 2 8 -2 16 1 21 13 19 9 -1 20 3 24 9 5 6 6 3 2 -9 -3
-11 -3 -16 1 -12 4 4 14 1 22 -6 13 -10 14 -9 3 11 -14 26 -4 29 16 4 12 -14
14 -14 10 -1 -3 9 4 21 16 28 18 12 23 11 41 -10 10 -13 17 -17 14 -8 -4 9 -2
22 4 30 8 11 9 10 4 -3 -6 -21 -2 -22 25 -8 10 6 19 7 19 2 0 -4 10 -8 21 -9
21 -2 21 -1 3 13 -18 14 -18 14 1 7 11 -3 25 -10 32 -15 8 -7 10 -3 6 14 l-6
23 19 -21 c17 -20 20 -20 34 -5 8 8 14 18 13 21 -1 3 1 7 4 10 4 3 3 -1 -1 -8
-10 -17 22 -28 37 -13 9 9 8 11 -5 6 -11 -5 -18 -2 -18 5 0 8 9 10 27 5 32 -8
33 -8 51 -6 7 0 10 6 7 11 -11 17 7 11 21 -7 13 -17 14 -17 7 1 -4 12 -2 17 4
13 5 -3 21 0 34 7 14 7 34 11 45 9 48 -10 64 -11 69 -3 3 5 -5 7 -19 4 -15 -2
-29 3 -37 14 -12 15 -12 16 1 6 19 -14 50 -14 50 0 0 6 5 4 10 -4 9 -13 11
-13 20 0 5 8 10 10 10 4 0 -17 28 -25 36 -12 4 6 3 8 -4 4 -6 -3 -13 -3 -16 2
-2 4 7 9 20 10 14 1 23 -2 20 -7 -4 -5 3 -7 14 -4 11 3 20 10 20 15 0 5 5 6
10 3 6 -4 7 -12 3 -18 -4 -7 0 -7 10 1 9 8 22 10 29 6 8 -5 8 -1 -2 11 -14 17
-13 18 5 8 28 -13 48 -11 52 7 4 13 3 13 -6 0 -6 -8 -11 -10 -11 -4 0 16 10
23 25 17 8 -2 11 -12 8 -21 -4 -10 3 -6 15 8 12 14 21 20 22 15 0 -6 -6 -17
-13 -25 -6 -8 -2 -6 10 4 13 10 20 23 17 27 -3 5 2 6 10 3 9 -3 13 -11 9 -17
-3 -6 -1 -7 5 -3 7 4 12 14 12 22 0 8 5 14 11 14 5 0 8 -4 4 -9 -3 -5 0 -13 6
-17 8 -4 9 -3 5 4 -4 7 -2 12 5 12 8 0 8 4 1 13 -8 9 -4 12 14 12 13 0 24 -4
24 -9 0 -5 2 -7 5 -4 3 3 2 13 -1 22 -5 14 -9 15 -16 4 -6 -9 -7 -5 -3 11 5
17 4 22 -5 16 -9 -6 -11 -4 -6 4 6 9 13 8 29 -6 15 -12 18 -13 9 -2 -6 9 -8
20 -4 24 4 5 1 4 -7 0 -11 -6 -13 -4 -7 11 5 14 4 16 -4 8 -9 -9 -20 -3 -46
26 -19 20 -34 43 -34 49 0 6 -6 11 -12 11 -9 0 -8 4 2 10 12 8 12 10 1 10 -11
0 -11 3 0 17 8 9 9 14 4 11 -6 -4 -17 3 -24 15 -8 12 -10 19 -6 15 4 -4 13 -1
20 5 10 10 9 14 -9 24 -21 12 -21 12 4 13 18 0 21 3 12 9 -8 4 -13 11 -13 15
3 23 0 36 -8 32 -11 -7 -8 21 4 31 4 4 5 2 0 -6 -5 -9 -4 -12 3 -7 6 4 9 13 5
21 -3 8 1 15 8 15 7 0 9 3 6 6 -4 4 -13 1 -21 -5 -11 -9 -16 -9 -22 0 -4 8 -3
9 4 5 7 -4 10 3 9 20 -1 17 4 29 13 31 9 3 11 1 5 -4 -5 -4 -11 -15 -13 -23
-1 -10 3 -9 13 5 14 18 14 21 0 32 -15 10 -15 12 2 16 16 4 16 5 -1 6 -20 1
-20 1 0 17 10 8 14 13 7 10 -13 -7 -12 19 2 31 4 4 5 2 1 -4 -4 -7 -2 -13 4
-13 7 0 9 8 5 20 -7 21 10 28 18 8 4 -8 6 -7 6 3 1 9 8 20 17 23 26 10 30 6
10 -9 -11 -8 -15 -15 -8 -15 6 0 18 10 27 23 13 19 17 20 26 7 9 -13 10 -12 5
2 -3 10 -2 18 2 18 5 0 8 11 8 24 0 14 -4 22 -8 20 -4 -3 -8 4 -8 15 0 14 -5
19 -20 16 -11 -2 -20 1 -20 6 0 6 -5 7 -12 3 -7 -4 -8 -3 -4 4 4 6 14 8 23 5
15 -6 16 -5 3 9 -8 9 -17 15 -20 14 -6 -3 -40 31 -41 42 0 4 -7 6 -16 4 -8 -2
-12 1 -8 7 3 6 2 11 -4 11 -5 0 -13 9 -16 20 -3 11 -13 20 -21 20 -8 0 -12 5
-9 10 3 6 -4 10 -17 10 -18 0 -20 2 -8 10 12 8 10 10 -9 10 -19 0 -21 3 -12
14 10 12 8 14 -11 9 -15 -3 -19 -2 -11 4 9 7 7 13 -8 23 -52 36 -56 40 -34 34
19 -5 19 -5 2 6 -10 6 -25 9 -32 6 -8 -3 -14 0 -12 7 1 7 -3 11 -10 10 -7 -2
-10 4 -6 12 5 13 7 13 20 -2 13 -16 13 -16 3 5 -10 21 -7 26 13 23 5 -1 6 3 2
9 -4 7 -14 5 -28 -5 -12 -8 -26 -15 -32 -15 -5 0 -2 5 8 11 9 6 15 13 13 17
-2 4 9 7 25 7 20 1 29 -4 29 -15 0 -12 2 -12 9 -1 7 11 11 10 20 -5 6 -11 11
-13 11 -6 0 7 4 11 8 8 5 -3 9 0 10 7 1 7 3 24 5 39 1 15 6 30 10 34 12 13 8
24 -10 24 -15 0 -16 2 -3 10 13 9 13 10 -1 10 -16 0 -55 67 -50 85 8 26 5 40
-9 40 -8 0 -15 7 -15 15 -1 8 -6 14 -12 13 -8 -2 -9 7 -2 29 7 24 6 29 -3 20
-7 -7 -17 -12 -23 -12 -5 0 -3 5 5 10 13 9 13 12 -2 20 -9 6 -15 17 -12 25 4
8 10 12 15 9 5 -3 9 -3 9 1 0 3 -15 15 -32 26 -28 17 -29 19 -8 14 l25 -7 -21
18 c-11 11 -19 25 -17 31 3 7 -3 16 -12 19 -14 6 -14 8 2 28 18 20 17 20 -1 6
-18 -14 -19 -13 -13 2 4 12 2 15 -8 11 -11 -4 -14 2 -11 26 2 22 -1 31 -11 31
-11 0 -14 7 -10 21 5 17 3 18 -11 7 -13 -10 -14 -10 -8 0 4 7 1 23 -7 36 -9
14 -12 28 -7 36 11 18 3 31 -14 24 -7 -3 -13 1 -13 9 0 8 7 14 16 13 11 -1 16
7 15 22 -1 17 2 20 11 12 9 -8 14 -7 17 1 3 9 9 9 27 0 21 -11 22 -11 12 7 -8
15 -7 18 7 17 10 0 24 -5 31 -10 9 -5 12 -4 7 3 -4 8 3 10 25 7 23 -3 29 0 25
11 -3 7 -2 13 2 13 4 -1 9 0 12 1 3 2 19 4 35 5 70 7 83 10 78 19 -4 5 1 7 10
3 10 -3 17 -2 17 3 0 6 4 10 10 10 5 0 7 -8 4 -17 -4 -12 1 -9 15 7 16 19 23
22 30 12 7 -11 9 -11 14 1 4 10 13 13 28 10 17 -5 20 -3 14 8 -7 11 -5 11 10
-1 15 -12 17 -12 10 -1 -6 11 -4 13 8 8 10 -3 17 -2 17 4 0 6 9 5 23 -2 l22
-12 -20 24 c-11 13 -13 19 -6 12 7 -6 20 -9 29 -6 11 5 13 3 7 -7 -5 -9 -4
-11 3 -6 7 4 12 15 12 24 0 14 2 15 9 2 6 -8 7 -18 4 -24 -3 -5 -1 -6 5 -2 6
3 9 16 7 29 -4 19 -2 20 8 7 16 -19 47 -22 40 -4 -3 8 -10 11 -17 7 -6 -3 -8
-2 -3 2 4 5 18 10 30 12 17 2 19 1 7 -7 -12 -7 -10 -9 8 -7 14 1 21 6 17 15
-2 7 -1 10 4 7 5 -3 12 -1 16 4 3 6 12 8 21 4 16 -6 16 17 -1 29 -6 5 -5 8 3
8 14 0 6 18 -27 60 -20 25 -20 25 -16 2 2 -13 0 -20 -6 -17 -5 4 -7 10 -4 14
7 13 -28 48 -44 43 -9 -3 -11 0 -6 8 6 9 2 9 -16 -1 -22 -11 -23 -11 -10 4 12
15 11 17 -5 18 -11 1 -22 1 -26 0 -4 0 -5 6 -2 13 4 11 0 13 -17 9 -18 -5 -21
-3 -16 10 4 11 2 14 -8 11 -7 -3 -18 4 -25 15 -6 12 -8 21 -4 21 3 0 1 7 -6
15 -7 9 -10 18 -6 22 3 3 6 1 6 -5 0 -7 5 -12 12 -12 6 0 1 11 -11 24 l-23 25
23 -5 c21 -5 22 -4 7 6 -10 6 -18 16 -18 21 0 6 4 7 10 4 6 -3 7 1 4 9 -3 9
-11 13 -16 10 -6 -4 -2 6 8 21 17 26 28 89 14 80 -4 -3 -5 7 -2 20 2 14 9 22
15 18 5 -3 7 -2 4 3 -3 6 -2 16 3 24 6 9 3 18 -8 27 -16 12 -15 12 2 6 13 -4
17 -3 12 5 -3 6 -1 14 5 18 8 4 9 3 5 -4 -4 -7 -2 -12 3 -12 6 0 11 6 11 13 0
25 21 36 48 26 22 -9 23 -8 12 6 -11 14 -11 16 1 13 8 -2 17 -7 21 -13 5 -6
12 -5 20 4 11 11 11 13 -1 6 -10 -6 -12 -4 -6 5 6 10 11 10 20 -4 11 -15 13
-15 19 -1 3 10 11 13 18 9 7 -4 10 -4 6 0 -4 5 -3 19 2 32 6 15 6 26 -1 30 -8
4 -7 10 2 16 10 6 7 7 -10 3 -13 -4 -21 -3 -18 1 3 5 -2 16 -11 24 -14 13 -15
12 -9 -3 3 -9 2 -17 -3 -17 -6 0 -10 9 -10 19 0 21 -33 37 -52 25 -8 -5 -9 -2
-4 11 5 15 4 16 -8 6 -11 -9 -16 -9 -22 0 -5 8 -3 9 6 4 9 -6 11 -4 6 4 -5 7
-15 10 -23 7 -9 -4 -11 -2 -7 6 5 8 2 9 -9 5 -9 -3 -19 -2 -22 4 -4 5 -11 7
-16 4 -5 -4 -9 -1 -9 4 0 6 5 11 10 11 6 0 10 5 10 11 0 5 -4 7 -10 4 -5 -3
-22 2 -37 11 l-28 16 25 -21 25 -22 -25 12 c-30 15 -50 40 -43 53 4 5 1 6 -5
2 -6 -4 -9 -14 -6 -24 5 -15 5 -15 -6 1 -6 9 -8 22 -4 29 4 6 3 8 -3 5 -6 -4
-16 0 -23 8 -10 12 -16 13 -26 4 -14 -11 -19 -1 -15 24 1 5 -3 6 -9 2 -6 -3
-7 -11 -4 -17 4 -6 -2 -6 -15 1 -11 7 -21 14 -21 17 0 3 6 2 13 -2 6 -4 4 1
-5 12 -19 22 -63 31 -51 11 4 -7 0 -6 -10 2 -9 7 -17 20 -17 27 0 8 -3 13 -7
13 -22 -4 -33 2 -27 14 5 7 0 6 -11 -3 -17 -14 -18 -13 -12 3 6 15 4 16 -16 6
l-22 -12 20 24 c11 13 13 18 5 12 -16 -15 -34 -17 -25 -4 3 5 0 13 -6 17 -8 4
-9 3 -5 -4 10 -17 -3 -15 -21 3 -8 8 -18 13 -21 11 -4 -2 -13 2 -20 10 -10 10
-10 14 -1 14 7 0 9 3 6 6 -4 4 -14 1 -24 -7 -11 -9 -14 -10 -9 -1 4 7 2 12 -8
12 -8 0 -17 -6 -20 -12 -3 -7 -3 -3 0 10 3 13 1 22 -6 22 -6 0 -8 5 -4 12 5 7
3 8 -7 2 -25 -15 -39 -13 -39 7 0 10 -5 19 -11 19 -5 0 -7 -4 -4 -10 3 -6 -1
-7 -9 -4 -9 3 -14 9 -12 13 3 4 1 13 -5 21 -7 12 -9 9 -9 -10 0 -19 -2 -22 -9
-10 -6 8 -7 18 -5 22 3 5 -8 11 -25 14 -17 4 -31 10 -31 15 0 5 -9 9 -19 9
-11 0 -23 9 -26 21 -6 17 -9 19 -16 8 -7 -12 -10 -12 -21 0 -11 11 -11 13 1 6
10 -6 12 -4 7 4 -5 7 -14 10 -22 7 -8 -3 -14 -1 -14 4 0 6 -3 9 -7 9 -5 -1
-11 0 -15 1 -5 1 -14 3 -20 4 -7 1 -12 9 -10 18 2 12 -3 15 -17 11 -10 -2 -22
0 -25 6 -5 7 0 9 11 5 15 -5 15 -4 3 4 -9 7 -19 7 -26 2 -12 -11 -24 -3 -24
14 0 6 5 4 10 -4 5 -8 10 -10 10 -4 0 19 -13 24 -28 11 -13 -10 -14 -8 -7 13
7 25 7 25 -10 5 -12 -14 -15 -15 -12 -4 3 9 0 16 -7 16 -21 0 -66 35 -59 46 3
6 1 7 -6 3 -6 -4 -9 -12 -6 -17 3 -5 -1 -6 -9 -3 -8 3 -12 12 -9 21 5 13 3 14
-16 3 -13 -6 -25 -9 -29 -6 -3 3 0 6 6 6 7 0 12 8 12 18 0 14 -2 15 -10 2 -6
-10 -10 -11 -10 -2 0 6 -7 12 -16 12 -9 0 -12 5 -8 13 5 8 2 7 -9 -2 -10 -8
-20 -11 -24 -7 -3 3 -1 6 6 6 9 0 9 4 -1 14 -9 10 -15 11 -20 2 -5 -7 -8 -4
-8 7 0 10 -4 15 -10 12 -5 -3 -10 -1 -10 4 0 6 -3 10 -7 10 -21 -3 -33 2 -33
15 0 9 -7 12 -20 9 -13 -4 -26 1 -34 12 -7 10 -18 15 -23 12 -6 -4 -14 0 -17
9 -3 9 -11 12 -18 8 -8 -5 -7 0 2 11 14 17 14 18 -7 6 -18 -9 -23 -9 -23 1 0
7 -10 19 -21 27 -20 12 -21 11 -15 -6 6 -15 5 -16 -6 -5 -7 7 -14 17 -14 23
-1 5 -2 12 -3 15 0 4 -8 1 -16 -6 -13 -11 -14 -10 -10 3 8 18 -11 32 -21 16
-5 -8 -3 -9 6 -4 9 6 11 4 6 -4 -6 -9 -13 -8 -27 5 -10 9 -16 22 -12 28 4 6
-1 5 -10 -3 -15 -12 -17 -11 -17 2 0 11 -5 14 -17 10 -12 -5 -14 -3 -8 7 6 10
4 12 -8 7 -9 -3 -19 -1 -23 5 -4 6 -3 8 3 5 5 -3 10 0 10 7 0 8 -7 12 -15 8
-11 -4 -13 -1 -7 8 5 8 4 11 -3 6 -6 -4 -10 -12 -8 -19 1 -7 1 -9 -1 -4 -3 4
-9 5 -14 2 -5 -4 -6 1 -3 10 5 11 2 14 -12 8 -11 -4 -15 -3 -11 4 4 6 -2 13
-13 16 -10 3 -21 0 -24 -7 -3 -6 -3 0 1 14 5 22 4 23 -10 12 -12 -10 -17 -10
-23 -1 -4 8 -3 9 4 5 8 -5 10 -1 5 9 -3 9 -9 13 -12 8 -7 -11 -22 -10 -39 0
-7 5 -15 2 -19 -9 -6 -17 -7 -17 -13 0 -6 17 -7 17 -20 0z m80 -14 c0 -5 -5
-10 -11 -10 -5 0 -7 5 -4 10 3 6 8 10 11 10 2 0 4 -4 4 -10z m-280 -54 c0 -2
-7 -7 -16 -10 -8 -3 -12 -2 -9 4 6 10 25 14 25 6z m-150 -26 c-20 -13 -30 -12
-30 1 0 5 4 8 9 4 5 -3 13 0 16 6 4 5 10 8 13 4 4 -3 0 -10 -8 -15z m-609
-113 c-1 -4 -3 -6 -4 -4 -2 1 -12 -5 -22 -13 -17 -14 -18 -14 -6 8 11 21 34
27 32 9z m-401 -85 c0 -4 -8 -12 -18 -19 -15 -9 -19 -8 -19 3 0 7 4 11 8 8 4
-2 10 0 14 6 7 12 15 13 15 2z m-173 -64 c-3 -8 -6 -5 -6 6 -1 11 2 17 5 13 3
-3 4 -12 1 -19z m-247 -72 c0 -3 -4 -8 -10 -11 -5 -3 -10 -1 -10 4 0 6 5 11
10 11 6 0 10 -2 10 -4z m-95 -26 c-3 -5 -12 -10 -18 -10 -7 0 -6 4 3 10 19 12
23 12 15 0z m3475 -400 c0 -5 -5 -10 -11 -10 -5 0 -7 5 -4 10 3 6 8 10 11 10
2 0 4 -4 4 -10z m95 -49 c3 -5 1 -12 -5 -16 -5 -3 -10 1 -10 9 0 18 6 21 15 7z
m-3638 -68 c-4 -3 -1 -13 6 -22 11 -14 10 -14 -5 -2 -16 12 -16 31 -1 31 4 0
3 -3 0 -7z m3908 -93 c3 -6 -1 -7 -9 -4 -18 7 -21 14 -7 14 6 0 13 -4 16 -10z
m-3770 -50 c3 -5 1 -10 -4 -10 -6 0 -11 5 -11 10 0 6 2 10 4 10 3 0 8 -4 11
-10z m3835 -44 c0 -2 -8 -10 -17 -17 -16 -13 -17 -12 -4 4 13 16 21 21 21 13z
m-200 -210 c0 -3 -4 -8 -10 -11 -5 -3 -10 -1 -10 4 0 6 5 11 10 11 6 0 10 -2
10 -4z m0 -30 c0 -3 -4 -8 -10 -11 -5 -3 -10 -1 -10 4 0 6 5 11 10 11 6 0 10
-2 10 -4z m155 -296 c3 -6 -1 -7 -9 -4 -18 7 -21 14 -7 14 6 0 13 -4 16 -10z
m-642 -324 c4 -10 1 -13 -8 -9 -8 3 -12 9 -9 14 7 12 11 11 17 -5z m-3103
-536 c0 -5 -2 -10 -4 -10 -3 0 -8 5 -11 10 -3 6 -1 10 4 10 6 0 11 -4 11 -10z
m3337 -202 c-3 -8 -6 -5 -6 6 -1 11 2 17 5 13 3 -3 4 -12 1 -19z m-3157 -153
c0 -8 -2 -15 -4 -15 -2 0 -6 7 -10 15 -3 8 -1 15 4 15 6 0 10 -7 10 -15z
m3255 -75 c3 -6 -1 -7 -9 -4 -18 7 -21 14 -7 14 6 0 13 -4 16 -10z m-3187 -52
c-2 -7 5 -12 16 -11 13 1 15 -2 7 -10 -7 -7 -15 -6 -26 3 -17 14 -20 30 -5 30
6 0 9 -6 8 -12z m62 -118 c6 -11 8 -20 6 -20 -3 0 -10 9 -16 20 -6 11 -8 20
-6 20 3 0 10 -9 16 -20z m3145 -320 c3 -5 1 -10 -4 -10 -6 0 -11 5 -11 10 0 6
2 10 4 10 3 0 8 -4 11 -10z m-91 -366 c3 -8 2 -12 -4 -9 -6 3 -10 10 -10 16 0
14 7 11 14 -7z m-46 -19 c-3 -3 -9 2 -12 12 -6 14 -5 15 5 6 7 -7 10 -15 7
-18z m-458 -75 c0 -5 -2 -10 -4 -10 -3 0 -8 5 -11 10 -3 6 -1 10 4 10 6 0 11
-4 11 -10z m-2105 -38 c-3 -3 -11 0 -18 7 -9 10 -8 11 6 5 10 -3 15 -9 12 -12z
m1085 -126 c0 -2 -7 -7 -16 -10 -8 -3 -12 -2 -9 4 6 10 25 14 25 6z m-1005
-24 c-3 -3 -11 0 -18 7 -9 10 -8 11 6 5 10 -3 15 -9 12 -12z m40 -60 c-3 -3
-11 0 -18 7 -9 10 -8 11 6 5 10 -3 15 -9 12 -12z m205 -2 c0 -5 -2 -10 -4 -10
-3 0 -8 5 -11 10 -3 6 -1 10 4 10 6 0 11 -4 11 -10z m-52 -37 c-12 -15 -22
-18 -14 -4 4 5 0 11 -6 14 -7 3 -3 4 9 4 17 -1 19 -4 11 -14z"/>
<path d="M1836 4527 c3 -10 9 -15 12 -12 3 3 0 11 -7 18 -10 9 -11 8 -5 -6z"/>
<path d="M1707 4496 c-4 -10 -1 -13 8 -9 8 3 12 9 9 14 -7 12 -11 11 -17 -5z"/>
<path d="M1480 4450 c-9 -6 -10 -10 -3 -10 6 0 15 5 18 10 8 12 4 12 -15 0z"/>
<path d="M1216 4397 c3 -10 9 -15 12 -12 3 3 0 11 -7 18 -10 9 -11 8 -5 -6z"/>
<path d="M3375 4120 c3 -5 8 -10 11 -10 2 0 4 5 4 10 0 6 -5 10 -11 10 -5 0
-7 -4 -4 -10z"/>
<path d="M335 3920 c-3 -5 -1 -10 4 -10 6 0 11 5 11 10 0 6 -2 10 -4 10 -3 0
-8 -4 -11 -10z"/>
<path d="M670 3390 c0 -5 5 -10 11 -10 5 0 7 5 4 10 -3 6 -8 10 -11 10 -2 0
-4 -4 -4 -10z"/>
<path d="M765 3280 c3 -5 8 -10 11 -10 2 0 4 5 4 10 0 6 -5 10 -11 10 -5 0 -7
-4 -4 -10z"/>
<path d="M4435 2886 c8 -12 12 -26 8 -29 -3 -4 1 -7 9 -7 14 0 14 4 5 25 -7
13 -18 27 -25 30 -8 3 -7 -3 3 -19z"/>
<path d="M290 2819 c0 -5 5 -7 10 -4 6 3 10 8 10 11 0 2 -4 4 -10 4 -5 0 -10
-5 -10 -11z"/>
<path d="M295 2691 c-3 -5 -2 -12 3 -15 5 -3 9 1 9 9 0 17 -3 19 -12 6z"/>
<path d="M3910 2676 c0 -2 7 -7 16 -10 8 -3 12 -2 9 4 -6 10 -25 14 -25 6z"/>
<path d="M3732 2521 c7 -9 13 -18 15 -20 1 -2 1 5 0 16 0 11 -7 20 -14 20 -10
0 -10 -4 -1 -16z"/>
<path d="M370 2470 c0 -5 5 -10 11 -10 5 0 7 5 4 10 -3 6 -8 10 -11 10 -2 0
-4 -4 -4 -10z"/>
<path d="M470 2266 c0 -2 7 -7 16 -10 8 -3 12 -2 9 4 -6 10 -25 14 -25 6z"/>
<path d="M3860 2220 c8 -5 20 -10 25 -10 6 0 3 5 -5 10 -8 5 -19 10 -25 10 -5
0 -3 -5 5 -10z"/>
<path d="M510 2200 c0 -5 5 -10 11 -10 5 0 7 5 4 10 -3 6 -8 10 -11 10 -2 0
-4 -4 -4 -10z"/>
<path d="M3890 2159 c0 -5 5 -7 10 -4 6 3 10 8 10 11 0 2 -4 4 -10 4 -5 0 -10
-5 -10 -11z"/>
<path d="M3940 2040 c12 -17 23 -30 25 -30 9 0 -22 50 -33 55 -7 3 -4 -8 8
-25z"/>
<path d="M600 2040 c0 -5 5 -10 11 -10 5 0 7 5 4 10 -3 6 -8 10 -11 10 -2 0
-4 -4 -4 -10z"/>
<path d="M3983 1925 c0 -8 4 -15 9 -15 4 0 8 4 8 9 0 6 -4 12 -8 15 -5 3 -9
-1 -9 -9z"/>
<path d="M806 1644 c-5 -14 -4 -15 9 -4 17 14 19 20 6 20 -5 0 -12 -7 -15 -16z"/>
<path d="M870 1526 c0 -2 7 -7 16 -10 8 -3 12 -2 9 4 -6 10 -25 14 -25 6z"/>
<path d="M4115 970 c21 -24 26 -25 19 -6 -3 8 -13 17 -22 21 -13 5 -13 2 3
-15z"/>
<path d="M3670 725 c-11 -13 -10 -14 4 -9 9 3 16 10 16 15 0 13 -6 11 -20 -6z"/>
<path d="M3267 674 c-4 -4 -7 -11 -7 -15 0 -10 24 -5 28 6 4 12 -12 18 -21 9z"/>
<path d="M2775 581 c-3 -6 -11 -9 -16 -6 -15 10 -10 -2 8 -16 9 -8 14 -9 10
-2 -4 6 -1 13 5 16 7 2 10 7 7 11 -4 4 -10 2 -14 -3z"/>
<path d="M2286 488 c3 -5 10 -6 15 -3 13 9 11 12 -6 12 -8 0 -12 -4 -9 -9z"/>
<path d="M2100 465 c-14 -16 -3 -20 19 -6 8 5 9 11 3 15 -5 3 -15 -1 -22 -9z"/>
<path d="M1897 433 c-4 -3 -7 -11 -7 -17 0 -6 5 -5 12 2 6 6 9 14 7 17 -3 3
-9 2 -12 -2z"/>
<path d="M1740 416 c0 -2 8 -10 18 -17 15 -13 16 -12 3 4 -13 16 -21 21 -21
13z"/>
<path d="M1520 398 c0 -3 8 -15 19 -27 17 -20 19 -20 25 -4 4 10 4 14 0 10 -4
-4 -16 0 -26 10 -10 9 -18 14 -18 11z"/>
</g>
</svg>
